<svg width="361" height="439" viewBox="0 0 361 439" fill="none" xmlns="http://www.w3.org/2000/svg">
<path d="M51.4044 108.144C23.5434 161.245 72.1227 235.066 78.3016 295.865C83.449 346.514 157.984 301.064 222.557 363.232C262.844 402.018 389.949 348.221 339.298 307.143C273.565 253.834 230.516 85.434 147.674 56.9712C116.327 46.2011 80.6661 52.3728 51.4044 108.144Z" fill="url(#paint0_linear_29_257)"/>
<path d="M77.0375 117.103C72.4311 113.445 67.2085 119.483 62.2414 127.524C58.271 137.559 57.5311 145.438 65.6114 151.853C70.4421 155.688 76.2784 151.577 80.2487 141.542C84.219 131.507 81.6439 120.76 77.0375 117.103Z" fill="#A686FF"/>
<path d="M114.419 111.091C104.46 112.398 103.386 125.469 105.914 131.846C109.946 142.017 114.674 149.82 124.633 148.513C130.587 147.732 138.186 138.044 134.154 127.874C130.123 117.704 122.176 110.073 114.419 111.091Z" fill="#A686FF"/>
<path d="M94.4445 154.706C94.4445 154.706 84.5319 150.427 86.5729 154.706C89.8276 161.53 93.729 167.882 100.36 166.508C104.325 165.686 108.617 157.449 105.362 150.625C102.107 143.802 94.4445 154.706 94.4445 154.706Z" fill="#A686FF"/>
<path d="M185.99 170.806C193.445 250.191 128.875 238.229 159.763 191.468L165.088 177.875L185.99 170.806Z" fill="url(#paint1_linear_29_257)" fill-opacity="0.952941"/>
<path d="M161.36 192.012C155.345 201.119 152.864 208.866 152.715 214.849C152.286 232.043 171.109 234.677 180.612 213.218C184.78 203.804 187.155 189.754 185.325 170.262" stroke="#C4BFFF" stroke-width="4" stroke-linecap="round"/>
<path d="M144.319 232.248C150.177 176.243 194.911 203.43 187.988 232.248" stroke="#0F0C22" stroke-width="7" stroke-linecap="round"/>
<g filter="url(#filter0_d_29_257)">
<path d="M117.89 274.467C116.718 255.446 123.954 242.852 136.067 235.084C145.103 229.29 153.613 235.304 153.613 235.304C153.613 235.304 162.646 223.507 171.916 224.512C181.186 225.518 189.027 231.462 189.027 231.462C189.027 231.462 194.481 226.025 204.951 229.816C220.252 235.356 227.167 246.802 228.668 262.927C230.168 279.051 224.898 293.175 210.924 301.891C201.361 307.855 195.15 302.6 195.15 302.6C195.15 302.6 191.382 311.004 180.597 312.174C169.78 315.73 160.553 306.611 160.553 306.611C160.553 306.611 153.337 314.3 143.413 310.563C130.111 305.553 120.246 293.359 117.89 274.467Z" fill="url(#paint2_linear_29_257)"/>
</g>
<path d="M153.026 222.461C157.605 231.178 169.998 231.063 178.35 218.111L153.026 222.461Z" fill="#CCC0EF" fill-opacity="0.984314"/>
<path d="M117.692 268.135C118.362 265.397 146.66 264.383 167.548 264.006C167.399 260.618 168.465 257.234 170.946 255.085C177.05 249.799 189.585 263.785 189.585 263.785C189.585 263.785 193.574 247.078 201.301 247.473C204.495 247.636 206.951 250.177 208.419 253.546C216.561 249.594 224.532 246.566 225.798 249.104C227.356 252.224 228.461 254.541 227.928 257.804C227.335 261.438 218.715 262.972 209.799 263.58C209.316 266.913 207.792 269.75 205.029 270.853C198.873 273.311 189.585 263.785 189.585 263.785L205.029 299.671L198.638 308.915L189.585 263.785L191.715 296.952L185.568 299.671L189.585 263.785C189.585 263.785 180.964 277.386 174.142 274.659C171.555 273.626 169.659 271.399 168.577 268.745C147.358 273.657 117.692 280.212 117.692 278.466C117.692 275.747 116.627 272.484 117.692 268.135Z" fill="#0F0C22"/>
<path d="M189.585 263.785C189.585 263.785 118.757 263.785 117.692 268.135C116.627 272.484 117.692 275.747 117.692 278.466C117.692 281.184 189.585 263.785 189.585 263.785ZM189.585 263.785C189.585 263.785 223.084 243.666 225.798 249.104C227.356 252.224 228.461 254.541 227.928 257.804C226.675 265.483 189.585 263.785 189.585 263.785ZM189.585 263.785C189.585 263.785 177.05 249.799 170.946 255.085C165.158 260.098 167.074 271.834 174.142 274.659C180.964 277.386 189.585 263.785 189.585 263.785ZM189.585 263.785C189.585 263.785 193.574 247.078 201.301 247.473C210.35 247.935 213.467 267.485 205.029 270.853C198.873 273.311 189.585 263.785 189.585 263.785ZM189.585 263.785L185.568 299.671L191.715 296.952L189.585 263.785ZM189.585 263.785L205.029 299.671L198.638 308.915L189.585 263.785Z" stroke="#0F0C22" stroke-width="2" stroke-linecap="round"/>
<path d="M153.724 219.742C156.193 232.225 170.057 233.187 178.934 216.48" stroke="#C4BFFF" stroke-width="4"/>
<path d="M143.671 63.5771C143.054 79.0102 80.4512 85.0326 73.7003 76.835C66.9494 68.6374 112.025 -2.36665 121.861 2.09263C129.426 5.52284 143.878 58.4231 143.671 63.5771Z" fill="#8574EF"/>
<path fill-rule="evenodd" clip-rule="evenodd" d="M142.105 67.5336C143.054 66.3154 143.597 65.0197 143.652 63.65C143.696 62.5472 143.069 59.2584 141.982 54.7361C140.554 54.0713 138.635 53.5361 137.537 54.7164C135.675 56.7158 138.731 60.7594 138.731 60.7594C138.731 60.7594 134.522 64.4395 135.665 66.8032C136.824 69.1985 141.967 66.9798 141.967 66.9798C141.967 66.9798 142.012 67.1933 142.105 67.5336ZM73.2045 72.1853C75.1398 72.5902 78.0616 71.3297 78.0616 71.3297C78.0616 71.3297 79.2587 76.9408 81.838 76.4836C84.4132 76.0271 84.9045 70.4398 84.9045 70.4398C84.9045 70.4398 90.3866 70.5567 90.6087 67.5949C90.8184 64.8001 85.9552 63.3299 85.9552 63.3299C85.9552 63.3299 87.869 58.0292 85.4571 56.7535C83.0451 55.4778 79.9083 60.1316 79.9083 60.1316C79.9083 60.1316 79.0562 59.525 77.9404 59.0235C75.4814 64.2865 73.7755 68.8759 73.2045 72.1853ZM135.229 30.9078C133.545 31.8856 132.098 34.0323 132.098 34.0323C132.098 34.0323 127.726 30.9202 125.821 32.967C123.96 34.9664 127.016 39.01 127.016 39.01C127.016 39.01 122.806 42.69 123.949 45.0538C125.108 47.4491 130.251 45.2304 130.251 45.2304C130.251 45.2304 131.448 50.8415 134.027 50.3843C136.602 49.9278 137.094 44.3405 137.094 44.3405C137.094 44.3405 138.068 44.3613 139.211 44.1635C138.027 39.9372 136.671 35.3929 135.229 30.9078ZM116.121 11.1954C116.121 11.1954 119.258 6.54163 121.67 7.81734C124.082 9.09305 122.168 14.3937 122.168 14.3937C122.168 14.3937 127.031 15.8639 126.822 18.6587C126.599 21.6205 121.117 21.5036 121.117 21.5036C121.117 21.5036 120.626 27.091 118.051 27.5474C115.472 28.0046 114.275 22.3935 114.275 22.3935C114.275 22.3935 109.132 24.6122 107.973 22.2169C106.829 19.8532 111.039 16.1731 111.039 16.1731C111.039 16.1731 107.983 12.1295 109.844 10.1301C111.75 8.08333 116.121 11.1954 116.121 11.1954ZM101.21 35.1198C101.21 35.1198 104.347 30.466 106.759 31.7417C109.171 33.0174 107.257 38.3181 107.257 38.3181C107.257 38.3181 112.12 39.7883 111.91 42.5831C111.688 45.5449 106.206 45.428 106.206 45.428C106.206 45.428 105.715 51.0153 103.14 51.4718C100.56 51.929 99.3633 46.3179 99.3633 46.3179C99.3633 46.3179 94.2203 48.5366 93.0616 46.1413C91.9181 43.7775 96.128 40.0975 96.128 40.0975C96.128 40.0975 93.072 36.0539 94.9332 34.0544C96.8384 32.0077 101.21 35.1198 101.21 35.1198ZM111.861 60.1316C111.861 60.1316 114.998 55.4778 117.41 56.7535C119.822 58.0292 117.908 63.3299 117.908 63.3299C117.908 63.3299 122.771 64.8001 122.561 67.5949C122.339 70.5567 116.857 70.4398 116.857 70.4398C116.857 70.4398 116.366 76.0271 113.791 76.4836C111.211 76.9408 110.014 71.3297 110.014 71.3297C110.014 71.3297 104.871 73.5484 103.712 71.1531C102.569 68.7893 106.779 65.1093 106.779 65.1093C106.779 65.1093 103.723 61.0657 105.584 59.0663C107.489 57.0195 111.861 60.1316 111.861 60.1316Z" fill="#EED5FF"/>
<defs>
<filter id="filter0_d_29_257" x="100.366" y="207.051" width="145.949" height="123.346" filterUnits="userSpaceOnUse" color-interpolation-filters="sRGB">
<feFlood flood-opacity="0" result="BackgroundImageFix"/>
<feColorMatrix in="SourceAlpha" type="matrix" values="0 0 0 0 0 0 0 0 0 0 0 0 0 0 0 0 0 0 127 0" result="hardAlpha"/>
<feOffset/>
<feGaussianBlur stdDeviation="8.7"/>
<feComposite in2="hardAlpha" operator="out"/>
<feColorMatrix type="matrix" values="0 0 0 0 1 0 0 0 0 0.702413 0 0 0 0 0.426667 0 0 0 1 0"/>
<feBlend mode="normal" in2="BackgroundImageFix" result="effect1_dropShadow_29_257"/>
<feBlend mode="normal" in="SourceGraphic" in2="effect1_dropShadow_29_257" result="shape"/>
</filter>
<linearGradient id="paint0_linear_29_257" x1="104.929" y1="60.9717" x2="82.7276" y2="350.17" gradientUnits="userSpaceOnUse">
<stop stop-color="white"/>
<stop offset="0.65" stop-color="#B095FF" stop-opacity="0.79"/>
<stop offset="1" stop-color="#8F68FF" stop-opacity="0"/>
</linearGradient>
<linearGradient id="paint1_linear_29_257" x1="166.686" y1="185.487" x2="169.064" y2="228.493" gradientUnits="userSpaceOnUse">
<stop stop-color="#BEAFED" stop-opacity="0"/>
<stop offset="1" stop-color="#DDD5F4" stop-opacity="0.976471"/>
</linearGradient>
<linearGradient id="paint2_linear_29_257" x1="170.566" y1="224.442" x2="182.363" y2="331.46" gradientUnits="userSpaceOnUse">
<stop stop-color="#FF9C41"/>
<stop offset="1" stop-color="#FFDC60"/>
</linearGradient>
</defs>
</svg>
