<svg width="303" height="383" viewBox="0 0 303 383" fill="none" xmlns="http://www.w3.org/2000/svg">
<g filter="url(#filter0_f_93_220)">
<path d="M163.188 294.533C163.188 297.564 161.103 299.533 159.094 299.533C157.084 299.533 155 297.564 155 294.533C155 291.502 157.084 289.533 159.094 289.533C161.103 289.533 163.188 291.502 163.188 294.533Z" stroke="#D7D3FF" stroke-width="4"/>
</g>
<g filter="url(#filter1_f_93_220)">
<ellipse cx="157.761" cy="291.689" rx="2.85645" ry="2.84375" fill="#D7D3FF"/>
</g>
<g filter="url(#filter2_f_93_220)">
<ellipse cx="160.236" cy="297.377" rx="1.14258" ry="1.53125" fill="#D7D3FF"/>
</g>
<path d="M184.327 244.649C188.292 251.552 198.635 255.648 183.952 261.921C179.78 264.557 175.391 272.693 171.426 265.79C167.461 258.886 165.422 239.559 169.594 236.922C173.766 234.286 180.362 237.745 184.327 244.649Z" fill="#D7D3FF"/>
<path d="M192.346 228.19C197.415 237.017 186.141 246.269 179.297 250.594C172.453 254.918 158.957 261.317 153.887 252.491C148.817 243.664 150.254 225.379 160.937 218.629C171.62 211.879 187.276 219.363 192.346 228.19Z" fill="#826DFF"/>
<path fill-rule="evenodd" clip-rule="evenodd" d="M167.186 230.523C171.552 227.764 172.974 221.841 170.362 217.294C170.105 216.846 169.817 216.427 169.504 216.04C178.691 215.648 188.525 221.538 192.346 228.19C197.415 237.017 186.141 246.269 179.297 250.594C177.049 252.014 174.084 253.658 170.936 254.913C172.512 252.207 172.508 248.407 170.647 245.168C168.112 240.754 163.092 239.05 159.434 241.362C155.776 243.673 154.866 249.124 157.4 253.538C158.176 254.888 159.184 255.985 160.315 256.79C157.686 256.415 155.407 255.138 153.887 252.49C150.222 246.111 149.957 234.79 154.126 226.455C154.254 226.736 154.395 227.012 154.552 227.284C157.163 231.832 162.82 233.281 167.186 230.523ZM187.436 243.471C191.566 240.861 192.485 234.517 189.49 229.302C186.494 224.086 180.717 221.973 176.587 224.583C172.457 227.192 171.538 233.536 174.533 238.752C177.529 243.967 183.306 246.08 187.436 243.471Z" fill="#6951FF"/>
<path d="M111.874 308.44C118.427 313.147 129.595 312.752 118.89 324.325C116.212 328.392 115.679 337.555 109.126 332.848C102.573 328.14 92.4815 311.345 95.1595 307.279C97.8375 303.213 105.321 303.733 111.874 308.44Z" fill="#FFDAB7"/>
<path d="M112.168 290.246C120.547 296.264 114.217 309.192 109.823 315.863C105.43 322.534 95.8604 333.748 87.4814 327.73C79.1025 321.711 72.6231 304.479 79.4805 294.067C86.338 283.655 103.789 284.227 112.168 290.246Z" fill="#FFC997"/>
<path fill-rule="evenodd" clip-rule="evenodd" d="M90.24 302.409C93.0426 298.154 91.8153 292.191 87.4989 289.09C87.0728 288.784 86.6326 288.517 86.1824 288.289C94.3849 284.267 105.853 285.709 112.168 290.245C120.547 296.264 114.217 309.192 109.823 315.863C108.381 318.053 106.38 320.734 104.046 323.134C104.33 320.04 102.707 316.58 99.6318 314.37C95.4424 311.361 90.1426 311.812 87.7945 315.377C85.4464 318.942 86.9391 324.272 91.1286 327.282C92.4103 328.202 93.796 328.799 95.1693 329.082C92.614 329.79 89.9942 329.534 87.4814 327.729C81.4252 323.379 76.3613 313.171 76.6086 303.914C76.8445 304.119 77.0917 304.315 77.3499 304.5C81.6663 307.601 87.4374 306.665 90.24 302.409ZM114.204 306.126C116.856 302.101 114.991 295.954 110.04 292.398C105.089 288.841 98.9256 289.221 96.2746 293.246C93.6235 297.272 95.4881 303.418 100.439 306.975C105.39 310.531 111.553 310.151 114.204 306.126Z" fill="#FF922D"/>
<path d="M185.723 339.953C177.031 348.585 171.914 363.551 163.922 348.865C160.573 345.155 150.282 344.163 158.974 335.532C167.666 326.901 192.049 313.898 195.398 317.608C198.747 321.317 194.415 331.322 185.723 339.953Z" fill="#D7D3FF"/>
<path d="M208.404 339.047C201.269 346.132 190.238 336.563 184.744 330.477C179.251 324.392 170.401 311.936 177.535 304.851C184.67 297.766 202.006 295.322 210.58 304.821C219.155 314.32 215.538 331.962 208.404 339.047Z" fill="#826DFF"/>
<path fill-rule="evenodd" clip-rule="evenodd" d="M200.842 313.771C204.347 317.653 210.167 317.841 213.842 314.191C214.205 313.831 214.533 313.447 214.827 313.043C217.16 322.371 213.781 333.707 208.404 339.047C201.269 346.132 190.238 336.563 184.744 330.477C182.94 328.479 180.774 325.793 178.931 322.836C181.789 323.872 185.326 323.054 187.945 320.454C191.512 316.911 192.024 311.403 189.088 308.15C186.152 304.898 180.88 305.133 177.312 308.675C176.221 309.759 175.416 311.026 174.908 312.357C174.694 309.583 175.396 306.976 177.535 304.851C182.692 299.73 193.178 297.034 201.833 299.519C201.599 299.71 201.372 299.915 201.152 300.133C197.477 303.783 197.338 309.888 200.842 313.771ZM193.121 337.29C196.436 340.962 202.541 340.545 206.757 336.359C210.973 332.172 211.703 325.802 208.388 322.129C205.073 318.457 198.968 318.874 194.752 323.06C190.537 327.247 189.806 333.618 193.121 337.29Z" fill="#6C54FF"/>
<path d="M143.396 117.379C148.37 124.318 158.611 128.517 146.449 134.638C143.161 137.23 140.756 145.317 135.782 138.377C130.808 131.438 125.149 112.1 128.437 109.508C131.725 106.916 138.423 110.44 143.396 117.379Z" fill="#D7D3FF"/>
<path d="M146.409 99.5202C150.491 105.216 141.621 113.787 136.227 118.04C130.834 122.293 120.182 129.114 116.1 123.418C112.017 117.722 113.024 104.051 121.444 97.4131C129.863 90.7749 142.327 93.8243 146.409 99.5202Z" fill="#826DFF"/>
<path fill-rule="evenodd" clip-rule="evenodd" d="M126.483 105.179C129.924 102.466 131.008 97.8883 128.905 94.954C128.697 94.6644 128.467 94.4016 128.216 94.1657C135.494 92.4377 143.332 95.2272 146.409 99.5201C150.491 105.216 141.621 113.787 136.227 118.04C134.456 119.436 132.118 121.11 129.631 122.526C130.861 120.29 130.831 117.496 129.332 115.406C127.291 112.558 123.299 112.092 120.416 114.365C117.533 116.638 116.851 120.789 118.892 123.637C119.517 124.508 120.324 125.157 121.226 125.572C119.139 125.708 117.324 125.126 116.1 123.418C113.149 119.301 112.857 111.018 116.101 104.235C116.204 104.422 116.319 104.603 116.445 104.779C118.548 107.713 123.042 107.892 126.483 105.179ZM142.628 111.526C145.882 108.96 146.565 104.151 144.153 100.785C141.741 97.4194 137.147 96.7713 133.892 99.3376C130.637 101.904 129.954 106.713 132.366 110.079C134.779 113.444 139.373 114.093 142.628 111.526Z" fill="#6950FF"/>
<path d="M149.917 166.538V165.604" stroke="#0F0C22" stroke-width="3" stroke-linecap="round"/>
<path d="M114.639 192.728L114.659 192.744L114.661 192.746L114.663 192.747L114.664 192.748L116.994 194.685L118.906 192.328L118.906 192.327L118.907 192.327L118.908 192.325L118.911 192.321L118.943 192.282C118.974 192.245 119.024 192.186 119.092 192.106C119.228 191.946 119.438 191.704 119.719 191.393C120.281 190.77 121.123 189.873 122.22 188.806C124.418 186.668 127.614 183.872 131.597 181.242C139.599 175.959 150.48 171.53 162.769 173.979L163.067 174.038L163.37 174.037C175.662 173.977 184.815 178.427 190.919 182.899C193.976 185.138 196.259 187.379 197.769 189.046C198.523 189.879 199.081 190.565 199.443 191.033C199.623 191.266 199.755 191.444 199.837 191.558C199.878 191.615 199.907 191.656 199.924 191.68L199.936 191.697L199.937 191.699L199.938 191.701L199.939 191.702L199.94 191.703L201.95 194.675L204.509 192.168L204.51 192.168C204.51 192.167 204.511 192.166 204.512 192.166C204.513 192.165 204.514 192.164 204.515 192.162C204.516 192.162 204.516 192.161 204.517 192.16C204.518 192.16 204.518 192.16 204.519 192.159C204.532 192.147 204.558 192.122 204.598 192.086C204.678 192.014 204.81 191.898 204.994 191.747C205.362 191.443 205.934 191 206.702 190.491C208.24 189.47 210.545 188.195 213.548 187.232C219.487 185.329 228.359 184.581 239.762 189.837C256.978 197.774 269.45 208.888 277.618 222.443C285.793 236.012 289.757 252.195 289.677 270.408C289.515 306.895 273.346 341.339 239.112 357.391C227.648 362.766 218.779 362.1 212.868 360.259C209.879 359.327 207.59 358.076 206.065 357.074C205.304 356.574 204.738 356.138 204.374 355.84C204.192 355.691 204.062 355.576 203.984 355.506C203.945 355.471 203.919 355.447 203.906 355.435C203.906 355.435 203.906 355.435 203.906 355.435C203.904 355.433 203.905 355.434 203.904 355.433C203.902 355.431 203.901 355.43 203.9 355.429L203.898 355.427L203.897 355.427L201.347 352.933L199.334 355.891L199.333 355.892L199.333 355.893L199.332 355.894L199.33 355.896L199.317 355.915C199.3 355.939 199.271 355.98 199.229 356.038C199.145 356.153 199.012 356.334 198.828 356.57C198.461 357.042 197.896 357.735 197.134 358.577C195.606 360.262 193.299 362.529 190.217 364.802C184.062 369.342 174.859 373.885 162.565 373.946L162.262 373.947L161.966 374.009C149.65 376.58 138.817 372.256 130.875 367.06C126.92 364.472 123.752 361.711 121.576 359.597C120.489 358.542 119.656 357.654 119.101 357.038C118.823 356.73 118.616 356.49 118.481 356.332C118.445 356.29 118.414 356.254 118.389 356.223C118.367 356.197 118.349 356.175 118.335 356.158L118.303 356.12L118.3 356.117L118.299 356.115L118.298 356.114L118.298 356.114L116.385 353.748L114.05 355.698L114.048 355.699L114.048 355.699L114.047 355.7L114.045 355.702L114.024 355.719C113.999 355.74 113.956 355.774 113.895 355.821C113.775 355.916 113.585 356.062 113.329 356.249C112.817 356.623 112.046 357.16 111.043 357.779C109.034 359.018 106.126 360.568 102.554 361.796C95.4307 364.246 85.7578 365.401 75.1823 360.366C45.6858 346.324 25.9962 314.691 24.7531 271.759C25.5632 250.315 30.9189 233.132 39.7028 219.537C48.4987 205.923 60.8376 195.743 75.8504 188.478C86.4867 183.332 96.1527 184.398 103.241 186.774C106.799 187.966 109.689 189.485 111.684 190.703C112.679 191.31 113.445 191.839 113.952 192.207C114.205 192.391 114.393 192.535 114.512 192.628C114.572 192.674 114.614 192.708 114.639 192.728Z" stroke="#D7D3FF" stroke-width="6"/>
<path d="M83.0087 350.863C51.5505 339.171 37.7063 301.171 36.8249 259.753C35.9435 218.335 91.2995 278.222 148.203 267.795C205.107 257.368 276.444 231.171 278.697 257.368C280.95 283.565 278.697 329.171 231.656 347.247C208.679 356.076 197.23 344.873 197.23 344.873C197.23 344.873 185.466 364.156 162.128 364.386C138.202 370.079 120.592 345.629 120.592 345.629C120.592 345.629 104.68 358.917 83.0087 350.863Z" fill="url(#paint0_linear_93_220)" fill-opacity="0.5"/>
<path d="M158.001 52.2501C160.29 56.2352 166.571 58.4047 157.386 62.4731C154.758 64.134 151.873 69.0523 149.585 65.0672C147.296 61.0821 146.469 49.7027 149.097 48.0418C151.726 46.3809 155.713 48.265 158.001 52.2501Z" fill="#FFDAB7"/>
<path d="M163.307 42.3213C166.234 47.4168 159.083 53.164 154.771 55.8887C150.458 58.6134 142.003 62.7276 139.076 57.632C136.149 52.5365 137.441 41.6891 144.172 37.4361C150.903 33.1831 160.38 37.2257 163.307 42.3213Z" fill="#FFC997"/>
<path fill-rule="evenodd" clip-rule="evenodd" d="M147.757 44.3161C150.508 42.578 151.515 39.041 150.008 36.416C149.859 36.1569 149.691 35.9164 149.507 35.6949C155.174 35.2385 161.101 38.4808 163.307 42.3212C166.234 47.4167 159.083 53.1639 154.771 55.8886C153.355 56.7834 151.492 57.828 149.524 58.6471C150.556 57.0085 150.638 54.7619 149.563 52.8915C148.1 50.3437 145.045 49.4589 142.74 50.9152C140.436 52.3715 139.754 55.6174 141.217 58.1652C141.665 58.9447 142.261 59.5686 142.94 60.0173C141.329 59.8599 139.954 59.1601 139.076 57.6319C136.96 53.9489 137.049 47.261 139.802 42.2301C139.875 42.3931 139.956 42.5534 140.046 42.7104C141.554 45.3354 145.006 46.0543 147.757 44.3161ZM159.943 51.4773C162.545 49.8331 163.253 46.0593 161.523 43.0483C159.794 40.0373 156.282 38.9293 153.68 40.5735C151.078 42.2177 150.37 45.9915 152.1 49.0025C153.829 52.0135 157.341 53.1215 159.943 51.4773Z" fill="#FF922D"/>
<path d="M203.71 160.42C201.361 167.95 203.973 177.611 192.671 172.572C188.923 171.752 181.612 174.739 183.961 167.208C186.31 159.677 197.43 144.481 201.178 145.301C204.926 146.12 206.059 152.889 203.71 160.42Z" fill="#FFDAB7"/>
<path d="M218.505 152.427C216.427 159.089 205.125 157.877 198.977 156.533C192.829 155.189 181.879 151.536 183.957 144.874C186.035 138.212 196.906 130.31 206.503 132.408C216.099 134.506 220.583 145.765 218.505 152.427Z" fill="#FFC997"/>
<path fill-rule="evenodd" clip-rule="evenodd" d="M203.382 141.097C207.304 141.954 211.351 139.867 212.422 136.435C212.528 136.097 212.6 135.758 212.642 135.42C217.91 139.774 220.071 147.406 218.505 152.427C216.427 159.089 205.125 157.877 198.977 156.533C196.958 156.092 194.421 155.401 191.998 154.437C194.357 153.941 196.449 152.15 197.212 149.705C198.251 146.374 196.429 143.091 193.143 142.373C189.857 141.654 186.351 143.772 185.312 147.103C184.994 148.122 184.944 149.137 185.122 150.075C183.882 148.599 183.334 146.872 183.957 144.874C185.459 140.059 191.555 134.596 198.442 132.729C198.358 132.925 198.283 133.125 198.219 133.33C197.148 136.762 199.46 140.24 203.382 141.097ZM207.38 157.199C211.09 158.01 215.093 155.476 216.321 151.54C217.549 147.603 215.537 143.754 211.827 142.943C208.117 142.132 204.114 144.666 202.886 148.602C201.658 152.539 203.67 156.388 207.38 157.199Z" fill="#FF922D"/>
<g filter="url(#filter3_f_93_220)">
<path d="M93.4939 235.699C93.4939 238.818 91.3436 240.864 89.2469 240.864C87.1503 240.864 85 238.818 85 235.699C85 232.579 87.1503 230.533 89.2469 230.533C91.3436 230.533 93.4939 232.579 93.4939 235.699Z" stroke="#D7D3FF" stroke-width="4"/>
</g>
<g filter="url(#filter4_f_93_220)">
<ellipse cx="87.8804" cy="232.788" rx="2.92825" ry="2.91097" fill="#D7D3FF"/>
</g>
<g filter="url(#filter5_f_93_220)">
<ellipse cx="90.4182" cy="238.61" rx="1.1713" ry="1.56745" fill="#D7D3FF"/>
</g>
<g filter="url(#filter6_f_93_220)">
<path d="M258.931 259.957C258.931 263.076 256.781 265.122 254.684 265.122C252.588 265.122 250.437 263.076 250.437 259.957C250.437 256.838 252.588 254.792 254.684 254.792C256.781 254.792 258.931 256.838 258.931 259.957Z" stroke="#D7D3FF" stroke-width="4"/>
</g>
<g filter="url(#filter7_f_93_220)">
<ellipse cx="253.318" cy="257.046" rx="2.92825" ry="2.91097" fill="#D7D3FF"/>
</g>
<g filter="url(#filter8_f_93_220)">
<ellipse cx="255.856" cy="262.868" rx="1.1713" ry="1.56745" fill="#D7D3FF"/>
</g>
<g filter="url(#filter9_f_93_220)">
<path d="M145.026 324.106C145.026 326.284 143.483 327.679 142.013 327.679C140.543 327.679 139 326.284 139 324.106C139 321.928 140.543 320.533 142.013 320.533C143.483 320.533 145.026 321.928 145.026 324.106Z" stroke="#D7D3FF" stroke-width="4"/>
</g>
<g filter="url(#filter10_f_93_220)">
<ellipse cx="140.916" cy="321.842" rx="2.34983" ry="2.26409" fill="#D7D3FF"/>
</g>
<g filter="url(#filter11_f_93_220)">
<ellipse cx="142.953" cy="326.37" rx="0.939931" ry="1.21913" fill="#D7D3FF"/>
</g>
<g filter="url(#filter12_f_93_220)">
<path d="M58.0528 142.921C58.0528 147.979 53.9691 152.067 48.9471 152.067C43.9251 152.067 39.8415 147.979 39.8415 142.921C39.8415 137.863 43.9251 133.775 48.9471 133.775C53.9691 133.775 58.0528 137.863 58.0528 142.921Z" stroke="#D7D3FF" stroke-width="4"/>
</g>
<g filter="url(#filter13_f_93_220)">
<ellipse cx="46.5178" cy="138.393" rx="5.20577" ry="4.52818" fill="#D7D3FF"/>
</g>
<g filter="url(#filter14_f_93_220)">
<ellipse cx="51.0294" cy="147.449" rx="2.08231" ry="2.43825" fill="#D7D3FF"/>
</g>
<g filter="url(#filter15_f_93_220)">
<path d="M278.52 75.3341C278.52 84.3797 271.14 91.733 262.011 91.733C252.882 91.733 245.502 84.3797 245.502 75.3341C245.502 66.2886 252.882 58.9353 262.011 58.9353C271.14 58.9353 278.52 66.2886 278.52 75.3341Z" stroke="#D7D3FF" stroke-width="4"/>
</g>
<g filter="url(#filter16_f_93_220)">
<ellipse cx="257.962" cy="67.8595" rx="8.67629" ry="7.47453" fill="#D7D3FF"/>
</g>
<g filter="url(#filter17_f_93_220)">
<ellipse cx="265.482" cy="82.8087" rx="3.47051" ry="4.02475" fill="#D7D3FF"/>
</g>
<path d="M2.52632 206.12L14.5875 203.597" stroke="#C4BFFF" stroke-width="4" stroke-linecap="round"/>
<path d="M6.70064 193.404L12.9563 221.419" stroke="#C4BFFF" stroke-width="4" stroke-linecap="round"/>
<path d="M290.85 193.35L300.62 194.314" stroke="#C4BFFF" stroke-width="4" stroke-linecap="round"/>
<path d="M297.145 185.653L294.997 206.039" stroke="#C4BFFF" stroke-width="4" stroke-linecap="round"/>
<path d="M54.5556 14.6096L66.8444 13.5272" stroke="#C4BFFF" stroke-width="4" stroke-linecap="round"/>
<path d="M60.2988 2.48096L62.9829 31.0249" stroke="#C4BFFF" stroke-width="4" stroke-linecap="round"/>
<g filter="url(#filter18_f_93_220)">
<path d="M114.697 194.896L114.703 194.9L114.705 194.902L114.709 194.906L114.709 194.906L114.712 194.908L117.887 197.547L120.788 194.588L120.789 194.587L120.79 194.586L120.794 194.582L120.833 194.542C120.871 194.505 120.931 194.445 121.013 194.364C121.177 194.203 121.429 193.958 121.762 193.644C122.427 193.014 123.414 192.107 124.671 191.027C127.191 188.859 130.759 186.025 134.962 183.338C143.598 177.814 153.9 173.561 163.095 175.442C173.38 177.545 182.723 182.254 189.576 186.53C192.983 188.656 195.727 190.644 197.609 192.093C198.549 192.816 199.271 193.403 199.75 193.801C199.989 194.001 200.168 194.153 200.282 194.251C200.34 194.301 200.381 194.337 200.406 194.358L200.431 194.38L200.431 194.38L200.432 194.381L200.433 194.382L200.434 194.383L203.228 196.866L206.152 194.59C206.153 194.589 206.156 194.587 206.159 194.585C206.167 194.579 206.18 194.57 206.198 194.557C206.255 194.516 206.363 194.441 206.523 194.338C206.841 194.133 207.361 193.819 208.072 193.459C209.495 192.739 211.676 191.836 214.551 191.23C220.233 190.031 228.89 189.928 240.113 195.102C257.099 202.932 268.665 213.394 276.019 226.149C283.399 238.949 286.737 254.405 286.657 272.513C286.499 308.396 271.31 337.759 237.592 353.569C226.439 358.799 218.084 358.192 212.683 356.559C209.93 355.726 207.849 354.597 206.485 353.703C205.804 353.256 205.306 352.872 204.999 352.619C204.846 352.492 204.741 352.399 204.685 352.348C204.665 352.331 204.652 352.318 204.644 352.311C204.643 352.31 204.643 352.31 204.642 352.309C204.64 352.308 204.638 352.306 204.638 352.305L200.588 348.3L197.651 353.205L197.651 353.205L197.647 353.211L197.646 353.212C197.641 353.221 197.632 353.235 197.619 353.256C197.611 353.269 197.601 353.283 197.591 353.3C197.533 353.39 197.433 353.541 197.29 353.744C197.005 354.152 196.55 354.768 195.919 355.523C194.655 357.038 192.699 359.095 189.997 361.163C184.63 365.274 176.277 369.475 164.339 369.533L163.886 369.536L163.442 369.628C151.572 372.106 141.057 368.268 133.267 363.533C129.39 361.177 126.28 358.652 124.145 356.717C123.08 355.753 122.266 354.943 121.728 354.387C121.46 354.109 121.261 353.895 121.135 353.757C121.072 353.688 121.028 353.638 121.002 353.609L120.981 353.585L120.979 353.583L120.977 353.581L120.977 353.581L120.975 353.579L118.092 350.251L114.711 353.067L114.708 353.069L114.705 353.072L114.702 353.075L114.699 353.077L114.695 353.08C114.676 353.095 114.64 353.125 114.586 353.167C114.478 353.251 114.302 353.386 114.062 353.562C113.58 353.913 112.843 354.425 111.88 355.017C109.948 356.205 107.146 357.693 103.707 358.869C96.861 361.211 87.6184 362.296 77.4824 357.47C48.4495 343.648 28.4939 315.028 27.2539 272.765C28.0621 251.567 33.3548 234.673 41.9626 221.35C50.5883 208 62.7009 197.991 77.5029 190.829C87.7007 185.894 96.9455 186.911 103.764 189.196C107.192 190.345 109.981 191.811 111.902 192.983C112.859 193.568 113.592 194.073 114.07 194.421C114.308 194.594 114.483 194.727 114.589 194.81C114.612 194.828 114.632 194.844 114.649 194.857C114.67 194.874 114.687 194.887 114.697 194.896Z" stroke="#D7D3FF" stroke-opacity="0.2" stroke-width="9"/>
</g>
<defs>
<filter id="filter0_f_93_220" x="149" y="283.533" width="20.1875" height="22" filterUnits="userSpaceOnUse" color-interpolation-filters="sRGB">
<feFlood flood-opacity="0" result="BackgroundImageFix"/>
<feBlend mode="normal" in="SourceGraphic" in2="BackgroundImageFix" result="shape"/>
<feGaussianBlur stdDeviation="2" result="effect1_foregroundBlur_93_220"/>
</filter>
<filter id="filter1_f_93_220" x="150.904" y="284.846" width="13.7129" height="13.6875" filterUnits="userSpaceOnUse" color-interpolation-filters="sRGB">
<feFlood flood-opacity="0" result="BackgroundImageFix"/>
<feBlend mode="normal" in="SourceGraphic" in2="BackgroundImageFix" result="shape"/>
<feGaussianBlur stdDeviation="2" result="effect1_foregroundBlur_93_220"/>
</filter>
<filter id="filter2_f_93_220" x="155.094" y="291.846" width="10.2852" height="11.0625" filterUnits="userSpaceOnUse" color-interpolation-filters="sRGB">
<feFlood flood-opacity="0" result="BackgroundImageFix"/>
<feBlend mode="normal" in="SourceGraphic" in2="BackgroundImageFix" result="shape"/>
<feGaussianBlur stdDeviation="2" result="effect1_foregroundBlur_93_220"/>
</filter>
<filter id="filter3_f_93_220" x="79" y="224.533" width="20.4939" height="22.3311" filterUnits="userSpaceOnUse" color-interpolation-filters="sRGB">
<feFlood flood-opacity="0" result="BackgroundImageFix"/>
<feBlend mode="normal" in="SourceGraphic" in2="BackgroundImageFix" result="shape"/>
<feGaussianBlur stdDeviation="2" result="effect1_foregroundBlur_93_220"/>
</filter>
<filter id="filter4_f_93_220" x="80.9522" y="225.877" width="13.8565" height="13.822" filterUnits="userSpaceOnUse" color-interpolation-filters="sRGB">
<feFlood flood-opacity="0" result="BackgroundImageFix"/>
<feBlend mode="normal" in="SourceGraphic" in2="BackgroundImageFix" result="shape"/>
<feGaussianBlur stdDeviation="2" result="effect1_foregroundBlur_93_220"/>
</filter>
<filter id="filter5_f_93_220" x="85.2469" y="233.042" width="10.3426" height="11.135" filterUnits="userSpaceOnUse" color-interpolation-filters="sRGB">
<feFlood flood-opacity="0" result="BackgroundImageFix"/>
<feBlend mode="normal" in="SourceGraphic" in2="BackgroundImageFix" result="shape"/>
<feGaussianBlur stdDeviation="2" result="effect1_foregroundBlur_93_220"/>
</filter>
<filter id="filter6_f_93_220" x="244.437" y="248.792" width="20.4939" height="22.3311" filterUnits="userSpaceOnUse" color-interpolation-filters="sRGB">
<feFlood flood-opacity="0" result="BackgroundImageFix"/>
<feBlend mode="normal" in="SourceGraphic" in2="BackgroundImageFix" result="shape"/>
<feGaussianBlur stdDeviation="2" result="effect1_foregroundBlur_93_220"/>
</filter>
<filter id="filter7_f_93_220" x="246.39" y="250.135" width="13.8565" height="13.822" filterUnits="userSpaceOnUse" color-interpolation-filters="sRGB">
<feFlood flood-opacity="0" result="BackgroundImageFix"/>
<feBlend mode="normal" in="SourceGraphic" in2="BackgroundImageFix" result="shape"/>
<feGaussianBlur stdDeviation="2" result="effect1_foregroundBlur_93_220"/>
</filter>
<filter id="filter8_f_93_220" x="250.684" y="257.301" width="10.3426" height="11.135" filterUnits="userSpaceOnUse" color-interpolation-filters="sRGB">
<feFlood flood-opacity="0" result="BackgroundImageFix"/>
<feBlend mode="normal" in="SourceGraphic" in2="BackgroundImageFix" result="shape"/>
<feGaussianBlur stdDeviation="2" result="effect1_foregroundBlur_93_220"/>
</filter>
<filter id="filter9_f_93_220" x="133" y="314.533" width="18.0259" height="19.1462" filterUnits="userSpaceOnUse" color-interpolation-filters="sRGB">
<feFlood flood-opacity="0" result="BackgroundImageFix"/>
<feBlend mode="normal" in="SourceGraphic" in2="BackgroundImageFix" result="shape"/>
<feGaussianBlur stdDeviation="2" result="effect1_foregroundBlur_93_220"/>
</filter>
<filter id="filter10_f_93_220" x="134.567" y="315.578" width="12.6997" height="12.5281" filterUnits="userSpaceOnUse" color-interpolation-filters="sRGB">
<feFlood flood-opacity="0" result="BackgroundImageFix"/>
<feBlend mode="normal" in="SourceGraphic" in2="BackgroundImageFix" result="shape"/>
<feGaussianBlur stdDeviation="2" result="effect1_foregroundBlur_93_220"/>
</filter>
<filter id="filter11_f_93_220" x="138.013" y="321.151" width="9.87986" height="10.4382" filterUnits="userSpaceOnUse" color-interpolation-filters="sRGB">
<feFlood flood-opacity="0" result="BackgroundImageFix"/>
<feBlend mode="normal" in="SourceGraphic" in2="BackgroundImageFix" result="shape"/>
<feGaussianBlur stdDeviation="2" result="effect1_foregroundBlur_93_220"/>
</filter>
<filter id="filter12_f_93_220" x="33.8415" y="127.775" width="30.2113" height="30.2925" filterUnits="userSpaceOnUse" color-interpolation-filters="sRGB">
<feFlood flood-opacity="0" result="BackgroundImageFix"/>
<feBlend mode="normal" in="SourceGraphic" in2="BackgroundImageFix" result="shape"/>
<feGaussianBlur stdDeviation="2" result="effect1_foregroundBlur_93_220"/>
</filter>
<filter id="filter13_f_93_220" x="37.312" y="129.865" width="18.4115" height="17.0564" filterUnits="userSpaceOnUse" color-interpolation-filters="sRGB">
<feFlood flood-opacity="0" result="BackgroundImageFix"/>
<feBlend mode="normal" in="SourceGraphic" in2="BackgroundImageFix" result="shape"/>
<feGaussianBlur stdDeviation="2" result="effect1_foregroundBlur_93_220"/>
</filter>
<filter id="filter14_f_93_220" x="44.9471" y="141.011" width="12.1646" height="12.8765" filterUnits="userSpaceOnUse" color-interpolation-filters="sRGB">
<feFlood flood-opacity="0" result="BackgroundImageFix"/>
<feBlend mode="normal" in="SourceGraphic" in2="BackgroundImageFix" result="shape"/>
<feGaussianBlur stdDeviation="2" result="effect1_foregroundBlur_93_220"/>
</filter>
<filter id="filter15_f_93_220" x="239.502" y="52.9353" width="45.0188" height="44.7976" filterUnits="userSpaceOnUse" color-interpolation-filters="sRGB">
<feFlood flood-opacity="0" result="BackgroundImageFix"/>
<feBlend mode="normal" in="SourceGraphic" in2="BackgroundImageFix" result="shape"/>
<feGaussianBlur stdDeviation="2" result="effect1_foregroundBlur_93_220"/>
</filter>
<filter id="filter16_f_93_220" x="245.286" y="56.385" width="25.3526" height="22.949" filterUnits="userSpaceOnUse" color-interpolation-filters="sRGB">
<feFlood flood-opacity="0" result="BackgroundImageFix"/>
<feBlend mode="normal" in="SourceGraphic" in2="BackgroundImageFix" result="shape"/>
<feGaussianBlur stdDeviation="2" result="effect1_foregroundBlur_93_220"/>
</filter>
<filter id="filter17_f_93_220" x="258.011" y="74.7839" width="14.941" height="16.0496" filterUnits="userSpaceOnUse" color-interpolation-filters="sRGB">
<feFlood flood-opacity="0" result="BackgroundImageFix"/>
<feBlend mode="normal" in="SourceGraphic" in2="BackgroundImageFix" result="shape"/>
<feGaussianBlur stdDeviation="2" result="effect1_foregroundBlur_93_220"/>
</filter>
<filter id="filter18_f_93_220" x="17.0514" y="164.789" width="279.807" height="215.817" filterUnits="userSpaceOnUse" color-interpolation-filters="sRGB">
<feFlood flood-opacity="0" result="BackgroundImageFix"/>
<feBlend mode="normal" in="SourceGraphic" in2="BackgroundImageFix" result="shape"/>
<feGaussianBlur stdDeviation="2.85" result="effect1_foregroundBlur_93_220"/>
</filter>
<linearGradient id="paint0_linear_93_220" x1="158.267" y1="245.466" x2="153.915" y2="365.231" gradientUnits="userSpaceOnUse">
<stop stop-color="#7159FF"/>
<stop offset="1" stop-color="#FF922D"/>
</linearGradient>
</defs>
</svg>
