<svg width="303" height="384" viewBox="0 0 303 384" fill="none" xmlns="http://www.w3.org/2000/svg">
<path d="M184.327 245.115C188.292 252.019 198.635 256.115 183.952 262.388C179.78 265.024 175.391 273.159 171.426 266.256C167.461 259.353 165.422 240.025 169.594 237.389C173.766 234.753 180.362 238.212 184.327 245.115Z" fill="#D7D3FF"/>
<path d="M192.346 228.657C197.415 237.484 186.141 246.736 179.297 251.061C172.453 255.385 158.957 261.784 153.887 252.957C148.817 244.131 150.254 225.846 160.937 219.096C171.62 212.346 187.276 219.83 192.346 228.657Z" fill="#826DFF"/>
<path fill-rule="evenodd" clip-rule="evenodd" d="M167.186 230.989C171.552 228.231 172.974 222.308 170.362 217.761C170.105 217.312 169.817 216.894 169.504 216.506C178.691 216.115 188.524 222.004 192.345 228.657C197.415 237.484 186.141 246.736 179.297 251.06C177.049 252.481 174.084 254.125 170.936 255.379C172.512 252.674 172.508 248.874 170.647 245.634C168.112 241.221 163.092 239.517 159.434 241.828C155.776 244.14 154.865 249.591 157.4 254.004C158.176 255.355 159.184 256.451 160.315 257.257C157.685 256.882 155.407 255.604 153.887 252.957C150.222 246.577 149.957 235.257 154.126 226.922C154.254 227.202 154.395 227.479 154.552 227.751C157.163 232.298 162.82 233.748 167.186 230.989ZM187.436 243.937C191.566 241.328 192.485 234.984 189.49 229.768C186.494 224.553 180.717 222.44 176.587 225.049C172.457 227.659 171.538 234.003 174.533 239.218C177.529 244.434 183.306 246.547 187.436 243.937Z" fill="#6951FF"/>
<path d="M111.874 308.906C118.427 313.614 129.595 313.219 118.89 324.792C116.212 328.858 115.679 338.022 109.126 333.314C102.573 328.607 92.4815 311.812 95.1595 307.746C97.8375 303.68 105.321 304.199 111.874 308.906Z" fill="#CAFFEC"/>
<path d="M112.168 290.712C120.547 296.731 114.217 309.659 109.823 316.33C105.43 323 95.8604 334.215 87.4814 328.196C79.1025 322.178 72.6231 304.946 79.4805 294.534C86.3379 284.122 103.789 284.693 112.168 290.712Z" fill="#A5FFE4"/>
<path fill-rule="evenodd" clip-rule="evenodd" d="M90.24 302.876C93.0425 298.621 91.8153 292.657 87.4989 289.557C87.0728 289.251 86.6326 288.984 86.1824 288.756C94.3848 284.734 105.853 286.176 112.168 290.712C120.547 296.731 114.217 309.659 109.823 316.33C108.381 318.52 106.38 321.201 104.046 323.601C104.33 320.506 102.707 317.047 99.6318 314.837C95.4423 311.828 90.1426 312.279 87.7945 315.844C85.4464 319.409 86.9391 324.739 91.1286 327.749C92.4103 328.669 93.796 329.266 95.1692 329.549C92.614 330.256 89.9941 330.001 87.4814 328.196C81.4251 323.846 76.3613 313.638 76.6086 304.381C76.8445 304.586 77.0917 304.782 77.3499 304.967C81.6663 308.068 87.4374 307.131 90.24 302.876ZM114.204 306.593C116.855 302.567 114.991 296.421 110.04 292.864C105.088 289.308 98.9256 289.688 96.2745 293.713C93.6234 297.739 95.4881 303.885 100.439 307.442C105.39 310.998 111.553 310.618 114.204 306.593Z" fill="#00FFB2"/>
<path d="M185.723 340.42C177.031 349.052 171.914 364.018 163.922 349.332C160.573 345.622 150.282 344.63 158.974 335.999C167.666 327.367 192.049 314.365 195.398 318.075C198.747 321.784 194.415 331.789 185.723 340.42Z" fill="#D7D3FF"/>
<path d="M208.404 339.514C201.269 346.598 190.238 337.029 184.744 330.944C179.251 324.859 170.401 312.403 177.535 305.318C184.67 298.233 202.006 295.789 210.58 305.288C219.155 314.787 215.538 332.429 208.404 339.514Z" fill="#826DFF"/>
<path fill-rule="evenodd" clip-rule="evenodd" d="M200.842 314.237C204.347 318.119 210.167 318.308 213.842 314.658C214.205 314.298 214.533 313.914 214.827 313.51C217.16 322.838 213.781 334.174 208.404 339.514C201.269 346.598 190.238 337.029 184.744 330.944C182.94 328.945 180.774 326.26 178.931 323.303C181.789 324.339 185.326 323.521 187.945 320.92C191.512 317.378 192.024 311.87 189.088 308.617C186.152 305.364 180.88 305.599 177.312 309.142C176.221 310.225 175.416 311.493 174.908 312.824C174.694 310.05 175.396 307.442 177.535 305.318C182.692 300.197 193.178 297.501 201.833 299.986C201.599 300.177 201.372 300.381 201.152 300.6C197.477 304.249 197.338 310.355 200.842 314.237ZM193.121 337.757C196.436 341.429 202.541 341.012 206.757 336.826C210.973 332.639 211.703 326.269 208.388 322.596C205.073 318.924 198.968 319.341 194.752 323.527C190.537 327.714 189.806 334.084 193.121 337.757Z" fill="#6C54FF"/>
<path d="M143.396 117.846C148.37 124.785 158.611 128.984 146.449 135.105C143.161 137.697 140.756 145.784 135.782 138.844C130.808 131.905 125.149 112.567 128.437 109.975C131.725 107.382 138.423 110.906 143.396 117.846Z" fill="#D7D3FF"/>
<path d="M146.409 99.9872C150.491 105.683 141.621 114.254 136.227 118.507C130.834 122.76 120.182 129.581 116.1 123.885C112.017 118.189 113.024 104.518 121.444 97.8801C129.863 91.2419 142.326 94.2913 146.409 99.9872Z" fill="#826DFF"/>
<path fill-rule="evenodd" clip-rule="evenodd" d="M126.483 105.646C129.924 102.933 131.008 98.3554 128.905 95.4211C128.697 95.1315 128.467 94.8687 128.216 94.6328C135.494 92.9048 143.332 95.6943 146.409 99.9872C150.491 105.683 141.621 114.254 136.227 118.507C134.456 119.904 132.118 121.577 129.631 122.993C130.861 120.757 130.831 117.964 129.332 115.873C127.291 113.025 123.299 112.559 120.416 114.832C117.533 117.105 116.851 121.256 118.892 124.104C119.517 124.975 120.324 125.624 121.226 126.039C119.139 126.175 117.324 125.593 116.1 123.885C113.149 119.768 112.857 111.485 116.101 104.702C116.204 104.889 116.319 105.07 116.445 105.246C118.548 108.18 123.042 108.359 126.483 105.646ZM142.628 111.993C145.882 109.427 146.565 104.618 144.153 101.252C141.741 97.8865 137.147 97.2384 133.892 99.8047C130.637 102.371 129.954 107.18 132.366 110.546C134.779 113.912 139.373 114.56 142.628 111.993Z" fill="#6950FF"/>
<path d="M149.917 167.005V166.07" stroke="#0F0C22" stroke-width="3" stroke-linecap="round"/>
<path d="M114.639 193.195L114.659 193.211L114.661 193.212L114.663 193.214L114.664 193.215L116.994 195.152L118.906 192.794L118.906 192.794L118.907 192.793L118.908 192.792L118.911 192.788L118.943 192.749C118.974 192.712 119.024 192.653 119.092 192.573C119.228 192.413 119.438 192.171 119.719 191.86C120.281 191.237 121.123 190.34 122.22 189.273C124.418 187.135 127.614 184.339 131.597 181.709C139.599 176.426 150.48 171.996 162.769 174.446L163.067 174.505L163.37 174.504C175.661 174.443 184.815 178.894 190.918 183.365C193.976 185.605 196.259 187.846 197.769 189.513C198.523 190.346 199.081 191.032 199.443 191.499C199.623 191.733 199.755 191.911 199.837 192.025C199.878 192.082 199.907 192.123 199.923 192.146L199.936 192.164L199.937 192.166L199.938 192.168L199.939 192.169L199.94 192.17L201.95 195.142L204.509 192.635L204.51 192.634C204.51 192.634 204.511 192.633 204.512 192.632C204.513 192.632 204.514 192.63 204.515 192.629C204.516 192.628 204.516 192.628 204.517 192.627C204.518 192.627 204.518 192.627 204.519 192.626C204.532 192.614 204.558 192.589 204.598 192.553C204.678 192.481 204.81 192.365 204.994 192.213C205.362 191.91 205.934 191.467 206.702 190.957C208.24 189.937 210.545 188.661 213.548 187.699C219.487 185.796 228.359 185.048 239.762 190.304C256.978 198.241 269.45 209.355 277.618 222.91C285.793 236.479 289.757 252.662 289.677 270.875C289.515 307.362 273.346 341.806 239.112 357.858C227.648 363.233 218.779 362.567 212.868 360.725C209.879 359.794 207.59 358.543 206.065 357.541C205.304 357.041 204.737 356.605 204.374 356.306C204.192 356.157 204.062 356.043 203.984 355.973C203.945 355.938 203.919 355.914 203.906 355.902C203.906 355.902 203.906 355.901 203.906 355.901C203.904 355.9 203.905 355.901 203.904 355.9C203.902 355.898 203.901 355.897 203.9 355.896L203.898 355.894L203.897 355.893L201.347 353.399L199.334 356.358L199.333 356.359L199.333 356.359L199.332 356.361L199.33 356.363L199.317 356.382C199.3 356.406 199.271 356.447 199.229 356.505C199.145 356.62 199.012 356.801 198.828 357.036C198.461 357.508 197.896 358.202 197.133 359.044C195.606 360.729 193.299 362.996 190.217 365.269C184.062 369.809 174.859 374.352 162.565 374.412L162.262 374.414L161.966 374.476C149.65 377.047 138.817 372.723 130.875 367.527C126.92 364.939 123.752 362.178 121.576 360.064C120.489 359.009 119.656 358.121 119.101 357.505C118.823 357.197 118.616 356.957 118.481 356.799C118.445 356.757 118.414 356.72 118.389 356.69C118.367 356.664 118.349 356.642 118.335 356.625L118.303 356.587L118.3 356.584L118.299 356.582L118.298 356.581L118.298 356.581L116.385 354.215L114.05 356.165L114.048 356.166L114.048 356.166L114.047 356.167L114.045 356.169L114.024 356.186C113.999 356.206 113.956 356.241 113.895 356.288C113.775 356.383 113.585 356.529 113.329 356.716C112.817 357.09 112.046 357.627 111.043 358.245C109.034 359.485 106.126 361.035 102.554 362.263C95.4306 364.713 85.7578 365.868 75.1822 360.833C45.6857 346.79 25.9961 315.158 24.753 272.226C25.5632 250.781 30.9189 233.599 39.7028 220.004C48.4987 206.39 60.8376 196.209 75.8504 188.945C86.4867 183.799 96.1526 184.865 103.241 187.241C106.799 188.433 109.689 189.952 111.684 191.17C112.679 191.777 113.445 192.305 113.952 192.674C114.205 192.858 114.393 193.001 114.512 193.094C114.572 193.141 114.614 193.175 114.639 193.195Z" stroke="#D7D3FF" stroke-width="6"/>
<path d="M83.4582 350.192C52 338.5 38.1558 300.5 37.2744 259.082C36.393 217.663 91.749 277.551 148.653 267.124C205.557 256.697 276.894 230.5 279.147 256.697C281.4 282.893 279.147 328.5 232.106 346.575C209.129 355.404 197.679 344.202 197.679 344.202C197.679 344.202 185.915 363.484 162.577 363.715C138.651 369.408 121.041 344.958 121.041 344.958C121.041 344.958 105.129 358.246 83.4582 350.192Z" fill="url(#paint0_linear_28_203)" fill-opacity="0.5"/>
<path d="M158.001 52.7169C160.29 56.702 166.571 58.8715 157.386 62.9399C154.758 64.6008 151.873 69.5191 149.584 65.534C147.296 61.5489 146.469 50.1695 149.097 48.5086C151.726 46.8477 155.713 48.7318 158.001 52.7169Z" fill="#A5FFE4"/>
<path d="M163.307 42.7881C166.234 47.8837 159.083 53.6309 154.771 56.3555C150.458 59.0802 142.003 63.1944 139.076 58.0989C136.149 53.0033 137.441 42.1559 144.172 37.9029C150.903 33.65 160.38 37.6926 163.307 42.7881Z" fill="#A5FFE4"/>
<path fill-rule="evenodd" clip-rule="evenodd" d="M147.757 44.7831C150.508 43.045 151.515 39.508 150.008 36.883C149.859 36.6239 149.691 36.3833 149.507 36.1619C155.174 35.7055 161.101 38.9478 163.307 42.7882C166.234 47.8837 159.083 53.6309 154.771 56.3556C153.354 57.2504 151.491 58.295 149.524 59.1141C150.556 57.4755 150.638 55.2289 149.563 53.3585C148.1 50.8107 145.045 49.9259 142.74 51.3822C140.436 52.8385 139.753 56.0844 141.217 58.6322C141.665 59.4117 142.261 60.0355 142.94 60.4843C141.329 60.3269 139.953 59.6271 139.076 58.0989C136.96 54.4159 137.049 47.7279 139.802 42.6971C139.875 42.8601 139.956 43.0204 140.046 43.1774C141.554 45.8024 145.006 46.5213 147.757 44.7831ZM159.943 51.9443C162.545 50.3001 163.252 46.5263 161.523 43.5153C159.794 40.5043 156.282 39.3963 153.68 41.0405C151.078 42.6847 150.37 46.4585 152.1 49.4695C153.829 52.4805 157.341 53.5885 159.943 51.9443Z" fill="#00F3AA"/>
<path d="M203.71 160.887C201.361 168.417 203.973 178.078 192.671 173.039C188.923 172.219 181.612 175.206 183.961 167.675C186.31 160.144 197.43 144.948 201.178 145.768C204.926 146.587 206.059 153.356 203.71 160.887Z" fill="#CAFFEC"/>
<path d="M218.505 152.894C216.427 159.556 205.125 158.344 198.977 157C192.829 155.656 181.879 152.003 183.957 145.341C186.035 138.679 196.906 130.777 206.502 132.875C216.099 134.973 220.583 146.232 218.505 152.894Z" fill="#A5FFE4"/>
<path fill-rule="evenodd" clip-rule="evenodd" d="M203.382 141.564C207.304 142.421 211.351 140.334 212.422 136.903C212.528 136.564 212.6 136.225 212.642 135.888C217.91 140.241 220.071 147.873 218.505 152.894C216.427 159.556 205.125 158.344 198.977 157C196.958 156.559 194.421 155.868 191.998 154.904C194.357 154.409 196.449 152.617 197.212 150.172C198.251 146.841 196.429 143.558 193.143 142.84C189.857 142.121 186.351 144.239 185.312 147.57C184.994 148.589 184.944 149.604 185.122 150.542C183.882 149.066 183.334 147.339 183.957 145.341C185.459 140.526 191.555 135.063 198.442 133.196C198.358 133.392 198.283 133.592 198.219 133.798C197.148 137.229 199.46 140.707 203.382 141.564ZM207.38 157.666C211.09 158.477 215.093 155.943 216.321 152.007C217.549 148.07 215.537 144.221 211.827 143.41C208.117 142.599 204.114 145.133 202.886 149.07C201.658 153.006 203.67 156.855 207.38 157.666Z" fill="#00FFB2"/>
<g filter="url(#filter0_f_28_203)">
<path d="M93.4938 236.165C93.4938 239.285 91.3436 241.331 89.2469 241.331C87.1502 241.331 85 239.285 85 236.165C85 233.046 87.1502 231 89.2469 231C91.3436 231 93.4938 233.046 93.4938 236.165Z" stroke="#D7D3FF" stroke-width="4"/>
</g>
<g filter="url(#filter1_f_28_203)">
<ellipse cx="87.8804" cy="233.255" rx="2.92825" ry="2.91097" fill="#D7D3FF"/>
</g>
<g filter="url(#filter2_f_28_203)">
<ellipse cx="90.4182" cy="239.076" rx="1.1713" ry="1.56745" fill="#D7D3FF"/>
</g>
<g filter="url(#filter3_f_28_203)">
<path d="M258.931 260.424C258.931 263.543 256.781 265.589 254.684 265.589C252.588 265.589 250.437 263.543 250.437 260.424C250.437 257.305 252.588 255.258 254.684 255.258C256.781 255.258 258.931 257.305 258.931 260.424Z" stroke="#D7D3FF" stroke-width="4"/>
</g>
<g filter="url(#filter4_f_28_203)">
<ellipse cx="253.318" cy="257.513" rx="2.92825" ry="2.91097" fill="#D7D3FF"/>
</g>
<g filter="url(#filter5_f_28_203)">
<ellipse cx="255.856" cy="263.335" rx="1.1713" ry="1.56745" fill="#D7D3FF"/>
</g>
<g filter="url(#filter6_f_28_203)">
<path d="M145.026 324.573C145.026 326.751 143.483 328.146 142.013 328.146C140.543 328.146 139 326.751 139 324.573C139 322.395 140.543 321 142.013 321C143.483 321 145.026 322.395 145.026 324.573Z" stroke="#D7D3FF" stroke-width="4"/>
</g>
<g filter="url(#filter7_f_28_203)">
<ellipse cx="140.916" cy="322.309" rx="2.34983" ry="2.26409" fill="#D7D3FF"/>
</g>
<g filter="url(#filter8_f_28_203)">
<ellipse cx="142.953" cy="326.837" rx="0.939931" ry="1.21913" fill="#D7D3FF"/>
</g>
<g filter="url(#filter9_f_28_203)">
<path d="M58.0527 143.388C58.0527 148.446 53.9691 152.534 48.9471 152.534C43.925 152.534 39.8414 148.446 39.8414 143.388C39.8414 138.33 43.925 134.242 48.9471 134.242C53.9691 134.242 58.0527 138.33 58.0527 143.388Z" stroke="#D7D3FF" stroke-width="4"/>
</g>
<g filter="url(#filter10_f_28_203)">
<ellipse cx="46.5177" cy="138.86" rx="5.20577" ry="4.52818" fill="#D7D3FF"/>
</g>
<g filter="url(#filter11_f_28_203)">
<ellipse cx="51.0294" cy="147.916" rx="2.08231" ry="2.43825" fill="#D7D3FF"/>
</g>
<g filter="url(#filter12_f_28_203)">
<path d="M278.52 75.801C278.52 84.8466 271.14 92.1998 262.011 92.1998C252.882 92.1998 245.502 84.8466 245.502 75.801C245.502 66.7555 252.882 59.4022 262.011 59.4022C271.14 59.4022 278.52 66.7555 278.52 75.801Z" stroke="#D7D3FF" stroke-width="4"/>
</g>
<g filter="url(#filter13_f_28_203)">
<ellipse cx="257.962" cy="68.3265" rx="8.67629" ry="7.47453" fill="#D7D3FF"/>
</g>
<g filter="url(#filter14_f_28_203)">
<ellipse cx="265.482" cy="83.2755" rx="3.47051" ry="4.02475" fill="#D7D3FF"/>
</g>
<path d="M2.52629 206.586L14.5875 204.064" stroke="#C4BFFF" stroke-width="4" stroke-linecap="round"/>
<path d="M6.70061 193.871L12.9562 221.886" stroke="#C4BFFF" stroke-width="4" stroke-linecap="round"/>
<path d="M290.85 193.817L300.62 194.781" stroke="#C4BFFF" stroke-width="4" stroke-linecap="round"/>
<path d="M297.145 186.12L294.997 206.506" stroke="#C4BFFF" stroke-width="4" stroke-linecap="round"/>
<path d="M54.5556 15.0767L66.8444 13.9943" stroke="#C4BFFF" stroke-width="4" stroke-linecap="round"/>
<path d="M60.2987 2.948L62.9828 31.4919" stroke="#C4BFFF" stroke-width="4" stroke-linecap="round"/>
<g filter="url(#filter15_f_28_203)">
<path d="M114.697 195.363L114.703 195.367L114.705 195.369L114.709 195.372L114.709 195.373L114.712 195.374L117.886 198.014L120.788 195.055L120.789 195.054L120.79 195.053L120.794 195.048L120.833 195.009C120.871 194.972 120.931 194.912 121.013 194.831C121.177 194.669 121.429 194.425 121.761 194.11C122.427 193.481 123.414 192.574 124.671 191.493C127.191 189.326 130.759 186.492 134.962 183.804C143.598 178.281 153.9 174.028 163.095 175.909C173.38 178.012 182.723 182.721 189.576 186.997C192.983 189.122 195.727 191.111 197.609 192.559C198.549 193.283 199.271 193.869 199.75 194.268C199.989 194.467 200.168 194.619 200.282 194.718C200.34 194.767 200.381 194.803 200.406 194.825L200.431 194.847L200.431 194.847L200.432 194.848L200.433 194.849L200.434 194.85L203.228 197.333L206.152 195.057C206.153 195.056 206.156 195.054 206.159 195.052C206.167 195.046 206.18 195.037 206.198 195.024C206.255 194.983 206.363 194.908 206.523 194.805C206.841 194.599 207.361 194.286 208.072 193.926C209.495 193.206 211.676 192.303 214.551 191.697C220.233 190.497 228.89 190.395 240.113 195.569C257.099 203.399 268.665 213.861 276.019 226.616C283.399 239.416 286.737 254.871 286.657 272.979C286.499 308.863 271.31 338.226 237.592 354.036C226.439 359.265 218.084 358.659 212.683 357.026C209.93 356.193 207.849 355.064 206.485 354.17C205.804 353.723 205.306 353.339 204.999 353.086C204.846 352.959 204.741 352.866 204.684 352.815C204.665 352.798 204.652 352.785 204.644 352.778C204.643 352.777 204.643 352.777 204.642 352.776C204.64 352.774 204.638 352.773 204.638 352.772L200.588 348.767L197.651 353.672L197.651 353.672L197.647 353.678L197.646 353.679C197.641 353.687 197.632 353.702 197.619 353.723C197.611 353.735 197.601 353.75 197.591 353.767C197.533 353.856 197.433 354.007 197.29 354.211C197.005 354.619 196.55 355.234 195.919 355.99C194.655 357.505 192.699 359.561 189.997 361.63C184.63 365.741 176.277 369.942 164.339 370L163.886 370.002L163.442 370.095C151.572 372.573 141.057 368.735 133.267 364C129.39 361.644 126.28 359.118 124.145 357.184C123.08 356.22 122.266 355.41 121.728 354.854C121.46 354.576 121.261 354.362 121.135 354.224C121.072 354.155 121.027 354.105 121.002 354.076L120.981 354.052L120.979 354.05L120.977 354.048L120.977 354.048L120.975 354.046L118.092 350.717L114.711 353.534L114.708 353.536L114.705 353.539L114.702 353.541L114.699 353.544L114.695 353.547C114.676 353.562 114.64 353.591 114.586 353.634C114.478 353.718 114.302 353.853 114.062 354.028C113.58 354.38 112.843 354.892 111.88 355.484C109.947 356.672 107.146 358.16 103.707 359.336C96.8609 361.678 87.6184 362.762 77.4823 357.937C48.4495 344.115 28.4938 315.495 27.2539 273.232C28.062 252.034 33.3547 235.14 41.9626 221.817C50.5883 208.467 62.7009 198.457 77.5029 191.295C87.7007 186.361 96.9455 187.377 103.764 189.663C107.192 190.812 109.981 192.277 111.902 193.45C112.859 194.034 113.592 194.54 114.07 194.887C114.308 195.061 114.483 195.194 114.589 195.277C114.612 195.295 114.632 195.311 114.649 195.324C114.67 195.341 114.687 195.354 114.697 195.363Z" stroke="#D7D3FF" stroke-opacity="0.2" stroke-width="9"/>
</g>
<defs>
<filter id="filter0_f_28_203" x="79" y="225" width="20.4939" height="22.3309" filterUnits="userSpaceOnUse" color-interpolation-filters="sRGB">
<feFlood flood-opacity="0" result="BackgroundImageFix"/>
<feBlend mode="normal" in="SourceGraphic" in2="BackgroundImageFix" result="shape"/>
<feGaussianBlur stdDeviation="2" result="effect1_foregroundBlur_28_203"/>
</filter>
<filter id="filter1_f_28_203" x="80.9521" y="226.344" width="13.8565" height="13.8219" filterUnits="userSpaceOnUse" color-interpolation-filters="sRGB">
<feFlood flood-opacity="0" result="BackgroundImageFix"/>
<feBlend mode="normal" in="SourceGraphic" in2="BackgroundImageFix" result="shape"/>
<feGaussianBlur stdDeviation="2" result="effect1_foregroundBlur_28_203"/>
</filter>
<filter id="filter2_f_28_203" x="85.2469" y="233.509" width="10.3426" height="11.1349" filterUnits="userSpaceOnUse" color-interpolation-filters="sRGB">
<feFlood flood-opacity="0" result="BackgroundImageFix"/>
<feBlend mode="normal" in="SourceGraphic" in2="BackgroundImageFix" result="shape"/>
<feGaussianBlur stdDeviation="2" result="effect1_foregroundBlur_28_203"/>
</filter>
<filter id="filter3_f_28_203" x="244.437" y="249.258" width="20.4939" height="22.3309" filterUnits="userSpaceOnUse" color-interpolation-filters="sRGB">
<feFlood flood-opacity="0" result="BackgroundImageFix"/>
<feBlend mode="normal" in="SourceGraphic" in2="BackgroundImageFix" result="shape"/>
<feGaussianBlur stdDeviation="2" result="effect1_foregroundBlur_28_203"/>
</filter>
<filter id="filter4_f_28_203" x="246.39" y="250.602" width="13.8565" height="13.8219" filterUnits="userSpaceOnUse" color-interpolation-filters="sRGB">
<feFlood flood-opacity="0" result="BackgroundImageFix"/>
<feBlend mode="normal" in="SourceGraphic" in2="BackgroundImageFix" result="shape"/>
<feGaussianBlur stdDeviation="2" result="effect1_foregroundBlur_28_203"/>
</filter>
<filter id="filter5_f_28_203" x="250.684" y="257.767" width="10.3426" height="11.1349" filterUnits="userSpaceOnUse" color-interpolation-filters="sRGB">
<feFlood flood-opacity="0" result="BackgroundImageFix"/>
<feBlend mode="normal" in="SourceGraphic" in2="BackgroundImageFix" result="shape"/>
<feGaussianBlur stdDeviation="2" result="effect1_foregroundBlur_28_203"/>
</filter>
<filter id="filter6_f_28_203" x="133" y="315" width="18.0259" height="19.1462" filterUnits="userSpaceOnUse" color-interpolation-filters="sRGB">
<feFlood flood-opacity="0" result="BackgroundImageFix"/>
<feBlend mode="normal" in="SourceGraphic" in2="BackgroundImageFix" result="shape"/>
<feGaussianBlur stdDeviation="2" result="effect1_foregroundBlur_28_203"/>
</filter>
<filter id="filter7_f_28_203" x="134.567" y="316.045" width="12.6997" height="12.5282" filterUnits="userSpaceOnUse" color-interpolation-filters="sRGB">
<feFlood flood-opacity="0" result="BackgroundImageFix"/>
<feBlend mode="normal" in="SourceGraphic" in2="BackgroundImageFix" result="shape"/>
<feGaussianBlur stdDeviation="2" result="effect1_foregroundBlur_28_203"/>
</filter>
<filter id="filter8_f_28_203" x="138.013" y="321.618" width="9.87986" height="10.4382" filterUnits="userSpaceOnUse" color-interpolation-filters="sRGB">
<feFlood flood-opacity="0" result="BackgroundImageFix"/>
<feBlend mode="normal" in="SourceGraphic" in2="BackgroundImageFix" result="shape"/>
<feGaussianBlur stdDeviation="2" result="effect1_foregroundBlur_28_203"/>
</filter>
<filter id="filter9_f_28_203" x="33.8414" y="128.242" width="30.2113" height="30.2926" filterUnits="userSpaceOnUse" color-interpolation-filters="sRGB">
<feFlood flood-opacity="0" result="BackgroundImageFix"/>
<feBlend mode="normal" in="SourceGraphic" in2="BackgroundImageFix" result="shape"/>
<feGaussianBlur stdDeviation="2" result="effect1_foregroundBlur_28_203"/>
</filter>
<filter id="filter10_f_28_203" x="37.312" y="130.331" width="18.4115" height="17.0563" filterUnits="userSpaceOnUse" color-interpolation-filters="sRGB">
<feFlood flood-opacity="0" result="BackgroundImageFix"/>
<feBlend mode="normal" in="SourceGraphic" in2="BackgroundImageFix" result="shape"/>
<feGaussianBlur stdDeviation="2" result="effect1_foregroundBlur_28_203"/>
</filter>
<filter id="filter11_f_28_203" x="44.9471" y="141.478" width="12.1646" height="12.8765" filterUnits="userSpaceOnUse" color-interpolation-filters="sRGB">
<feFlood flood-opacity="0" result="BackgroundImageFix"/>
<feBlend mode="normal" in="SourceGraphic" in2="BackgroundImageFix" result="shape"/>
<feGaussianBlur stdDeviation="2" result="effect1_foregroundBlur_28_203"/>
</filter>
<filter id="filter12_f_28_203" x="239.502" y="53.4022" width="45.0188" height="44.7977" filterUnits="userSpaceOnUse" color-interpolation-filters="sRGB">
<feFlood flood-opacity="0" result="BackgroundImageFix"/>
<feBlend mode="normal" in="SourceGraphic" in2="BackgroundImageFix" result="shape"/>
<feGaussianBlur stdDeviation="2" result="effect1_foregroundBlur_28_203"/>
</filter>
<filter id="filter13_f_28_203" x="245.286" y="56.8519" width="25.3526" height="22.949" filterUnits="userSpaceOnUse" color-interpolation-filters="sRGB">
<feFlood flood-opacity="0" result="BackgroundImageFix"/>
<feBlend mode="normal" in="SourceGraphic" in2="BackgroundImageFix" result="shape"/>
<feGaussianBlur stdDeviation="2" result="effect1_foregroundBlur_28_203"/>
</filter>
<filter id="filter14_f_28_203" x="258.011" y="75.2507" width="14.941" height="16.0495" filterUnits="userSpaceOnUse" color-interpolation-filters="sRGB">
<feFlood flood-opacity="0" result="BackgroundImageFix"/>
<feBlend mode="normal" in="SourceGraphic" in2="BackgroundImageFix" result="shape"/>
<feGaussianBlur stdDeviation="2" result="effect1_foregroundBlur_28_203"/>
</filter>
<filter id="filter15_f_28_203" x="17.0513" y="165.256" width="279.807" height="215.817" filterUnits="userSpaceOnUse" color-interpolation-filters="sRGB">
<feFlood flood-opacity="0" result="BackgroundImageFix"/>
<feBlend mode="normal" in="SourceGraphic" in2="BackgroundImageFix" result="shape"/>
<feGaussianBlur stdDeviation="2.85" result="effect1_foregroundBlur_28_203"/>
</filter>
<linearGradient id="paint0_linear_28_203" x1="158.716" y1="244.795" x2="154.365" y2="364.56" gradientUnits="userSpaceOnUse">
<stop stop-color="#7159FF"/>
<stop offset="0.74" stop-color="#36A9D3"/>
<stop offset="1" stop-color="#00F3AA"/>
</linearGradient>
</defs>
</svg>
